<svg width="70" height="79" viewBox="0 0 70 79" fill="none" xmlns="http://www.w3.org/2000/svg">
<path d="M68.125 24.6875C69.1562 24.6875 70 23.8543 70 22.8359V16.6641C70 15.6457 69.1562 14.8125 68.125 14.8125H65V7.40625C65 3.31738 61.6406 0 57.5 0H7.5C3.35938 0 0 3.31738 0 7.40625V71.5938C0 75.6826 3.35938 79 7.5 79H57.5C61.6406 79 65 75.6826 65 71.5938V64.1875H68.125C69.1562 64.1875 70 63.3543 70 62.3359V56.1641C70 55.1457 69.1562 54.3125 68.125 54.3125H65V44.4375H68.125C69.1562 44.4375 70 43.6043 70 42.5859V36.4141C70 35.3957 69.1562 34.5625 68.125 34.5625H65V24.6875H68.125ZM32.5 19.75C38.0156 19.75 42.5 24.1783 42.5 29.625C42.5 35.0717 38.0156 39.5 32.5 39.5C26.9844 39.5 22.5 35.0717 22.5 29.625C22.5 24.1783 26.9844 19.75 32.5 19.75ZM50 56.2875C50 57.923 48.4375 59.25 46.5 59.25H18.5C16.5625 59.25 15 57.923 15 56.2875V53.325C15 48.4184 19.7031 44.4375 25.5 44.4375H26.2812C28.2031 45.2244 30.2969 45.6719 32.5 45.6719C34.7031 45.6719 36.8125 45.2244 38.7188 44.4375H39.5C45.2969 44.4375 50 48.4184 50 53.325V56.2875Z" fill="black"/>
</svg>
