<svg width="42" height="40" viewBox="0 0 42 40" fill="none" xmlns="http://www.w3.org/2000/svg">
<path d="M32.6186 16.8171C32.6186 15.2043 27.4162 13.8971 21 13.8971C14.5838 13.8971 9.3821 15.2043 9.3821 16.8171L6.1656 33.9664C6.1432 34.0288 6.13067 34.0944 6.1285 34.1607V37.0807C6.1292 38.6921 12.7876 40 21 40C29.2138 40 35.8715 38.6921 35.8715 37.0807V34.1607C35.87 34.0943 35.8577 34.0287 35.8351 33.9664L32.6186 16.8171ZM27.0417 31.985L22.2936 29.0014L21 34.4193L19.7064 29.0021L14.9583 31.9857L17.808 27.0136L12.635 25.6593L17.808 24.3057L14.9583 19.3321L19.7064 22.3171L21 16.8993L22.2936 22.315L27.0417 19.3314L24.1927 24.3043L29.365 25.6586L24.1927 27.0136L27.0417 31.985ZM37.324 3.46786L32.1251 11.6279L40.5727 6.80929L37.324 3.46786ZM4.6774 3.46786L1.428 6.80929L9.8756 11.6279L4.6774 3.46786ZM0 13.8943V17.8036L7.8659 16.6536L0 13.8943ZM34.1348 16.6536L42 17.8036V13.8943L34.1348 16.6536ZM15.5505 0L11.3169 0.695714L16.6047 10.5121L15.5505 0ZM26.4502 0L25.396 10.5121L30.6838 0.695714L26.4502 0Z" fill="white"/>
</svg>
