<svg width="69" height="47" viewBox="0 0 69 47" fill="none" xmlns="http://www.w3.org/2000/svg">
<path d="M68.5832 21.713C62.0869 8.76232 49.226 0 34.5 0C19.774 0 6.90953 8.76844 0.41681 21.7142C0.142777 22.2681 0 22.88 0 23.5006C0 24.1212 0.142777 24.7331 0.41681 25.287C6.91312 38.2377 19.774 47 34.5 47C49.226 47 62.0905 38.2316 68.5832 25.2858C68.8572 24.7319 69 24.12 69 23.4994C69 22.8788 68.8572 22.2669 68.5832 21.713ZM34.5 41.125C31.0883 41.125 27.7531 40.0913 24.9164 38.1547C22.0796 36.218 19.8687 33.4653 18.563 30.2448C17.2574 27.0242 16.9158 23.4804 17.5814 20.0615C18.247 16.6426 19.8899 13.5021 22.3024 11.0372C24.7148 8.57234 27.7885 6.89372 31.1347 6.21366C34.4809 5.5336 37.9493 5.88263 41.1013 7.21662C44.2533 8.55062 46.9474 10.8097 48.8429 13.7081C50.7383 16.6065 51.75 20.0141 51.75 23.5C51.7511 25.8149 51.3057 28.1073 50.4392 30.2461C49.5727 32.385 48.3021 34.3284 46.7001 35.9653C45.098 37.6021 43.196 38.9003 41.1026 39.7857C39.0092 40.671 36.7656 41.1261 34.5 41.125ZM34.5 11.75C33.4735 11.7647 32.4537 11.9207 31.4681 12.2139C32.2805 13.342 32.6704 14.7302 32.567 16.1268C32.4636 17.5234 31.8737 18.8359 30.9044 19.8263C29.9351 20.8167 28.6506 21.4193 27.2837 21.525C25.9168 21.6306 24.5581 21.2323 23.454 20.4022C22.8253 22.7688 22.9388 25.2773 23.7785 27.5746C24.6182 29.8718 26.1419 31.8422 28.135 33.2084C30.1281 34.5745 32.4904 35.2677 34.8893 35.1903C37.2882 35.1128 39.6029 34.2687 41.5077 32.7768C43.4124 31.2848 44.8113 29.2201 45.5075 26.8732C46.2036 24.5264 46.1619 22.0156 45.3882 19.6942C44.6146 17.3728 43.1479 15.3578 41.1947 13.9327C39.2415 12.5076 36.9001 11.7442 34.5 11.75Z" fill="white"/>
</svg>
