<svg width="21" height="11" viewBox="0 0 21 11" fill="none" xmlns="http://www.w3.org/2000/svg">
<path fill-rule="evenodd" clip-rule="evenodd" d="M0.794848 3.02274C2.05819 1.87833 4.95619 0 10.3591 0C15.7621 0 18.6601 1.87833 19.9234 3.02274C20.492 3.5362 20.7183 4.29334 20.7183 5.05337V8.40827C20.7186 8.74851 20.6519 9.08549 20.522 9.39995C20.3921 9.7144 20.2014 10.0002 19.961 10.2409C19.7205 10.4816 19.435 10.6726 19.1207 10.8029C18.8063 10.9332 18.4694 11.0002 18.1292 11.0002H2.58906C2.24893 11.0002 1.91215 10.9332 1.59793 10.803C1.28372 10.6728 0.99824 10.482 0.757805 10.2414C0.517369 10.0008 0.326691 9.71524 0.196664 9.40095C0.0666371 9.08667 -0.000190138 8.74984 4.06327e-07 8.40972V5.05337C4.06327e-07 4.28753 0.226271 3.5304 0.794848 3.02274ZM10.3591 9.05807H18.1292C18.3009 9.05769 18.4654 8.98921 18.5867 8.86766C18.708 8.74611 18.7761 8.58142 18.7761 8.40972V5.05337C18.7761 4.62839 18.6514 4.48334 18.6209 4.45434C17.6984 3.62033 15.2617 1.9349 10.3533 1.9349C5.445 1.9349 3.01404 3.62033 2.08575 4.45434C2.05529 4.48334 1.93055 4.62839 1.93055 5.05337V8.40827C1.93055 8.57997 1.99866 8.74466 2.11994 8.86621C2.24121 8.98776 2.40575 9.05624 2.57745 9.05662L10.3591 9.05807Z" fill="white"/>
</svg>
