<svg width="22" height="19" viewBox="0 0 22 19" fill="none" xmlns="http://www.w3.org/2000/svg">
<path d="M10.8599 0C4.86304 0 0.0028147 3.9484 0.0028147 8.82135C0.0028147 10.8401 0.84678 12.6892 2.24632 14.1778C1.61441 15.8487 0.299687 17.2652 0.278482 17.2822C-0.00142634 17.5791 -0.0777649 18.0117 0.0833943 18.3849C0.244553 18.7581 0.613523 18.9998 1.02066 18.9998C3.6289 18.9998 5.6858 17.9099 6.91994 17.0362C8.1456 17.4222 9.4688 17.6427 10.8599 17.6427C16.8567 17.6427 21.7169 13.6943 21.7169 8.82135C21.7169 3.9484 16.8567 0 10.8599 0ZM10.8599 15.607C9.7275 15.607 8.60787 15.4331 7.53489 15.0938L6.57217 14.7885L5.74517 15.3737C5.1387 15.8021 4.30746 16.2813 3.30658 16.6036C3.61617 16.0905 3.91729 15.5137 4.15054 14.8987L4.60009 13.707L3.72644 12.7825C2.95881 11.9639 2.03851 10.6111 2.03851 8.82135C2.03851 5.08076 5.99539 2.0357 10.8599 2.0357C15.7243 2.0357 19.6812 5.08076 19.6812 8.82135C19.6812 12.5619 15.7243 15.607 10.8599 15.607Z" fill="white"/>
</svg>
