<svg width="4" height="7" viewBox="0 0 4 7" fill="none" xmlns="http://www.w3.org/2000/svg">
<path d="M0.00794623 6.28403C0.0436634 6.28403 0.141889 6.38672 0.374051 6.50726C0.700461 6.66411 1.07501 6.68812 1.41878 6.57423C2.28045 6.30189 3.05731 4.98928 3.16 3.5472C3.21194 2.85918 3.10975 2.16824 2.86086 1.52471C2.79688 1.27045 2.67199 1.03558 2.49698 0.840343C2.32197 0.645112 2.1021 0.495383 1.85632 0.404084C1.69828 0.354455 1.52786 0.361657 1.37458 0.42444C1.22129 0.487222 1.09478 0.601634 1.01696 0.747864C0.896415 0.971096 0.941067 1.13182 0.89642 1.14522C0.851774 1.15861 0.731227 1.00235 0.811591 0.671965C0.865927 0.475819 0.985647 0.304124 1.15091 0.185321C1.37933 0.0292079 1.65963 -0.0316596 1.93222 0.0156617C2.25897 0.0966802 2.55963 0.259759 2.80574 0.489458C3.05184 0.719157 3.23525 1.00788 3.33858 1.32827C3.64695 2.03923 3.77722 2.81468 3.71808 3.58738C3.59307 5.19912 2.70014 6.67692 1.52147 6.95819C1.30323 7.01087 1.07593 7.01374 0.856431 6.9666C0.636932 6.91945 0.430867 6.82349 0.25351 6.68585C0.012419 6.46261 -0.0188417 6.29742 0.00794623 6.28403Z" fill="#FF9A6C"/>
</svg>
