<svg width="3" height="3" viewBox="0 0 3 3" fill="none" xmlns="http://www.w3.org/2000/svg">
<path d="M0.674619 2.57915C0.481967 2.60816 0.286058 2.60816 0.0934059 2.57915H0L0.0467029 2.48572C0.25428 2.04462 0.61754 1.34406 1.08459 0.518943L1.11053 0.472224H1.16762L2.3093 0.176439L2.82824 0.0415085L2.99949 0V0.176439C2.99335 0.419549 2.93338 0.658277 2.82391 0.875431C2.71443 1.09258 2.55817 1.28275 2.36638 1.43227L1.48417 2.09652C1.2364 2.30175 0.96455 2.47601 0.674619 2.61546C0.890695 2.35758 1.13628 2.12593 1.40633 1.92527C1.80073 1.49974 2.73483 1.11053 2.72964 0.155677L2.90089 0.290607L2.38195 0.430716L1.23509 0.710949L1.31812 0.648678C0.851071 1.46861 0.451478 2.14842 0.192006 2.55838L0.140109 2.45459C0.32289 2.47297 0.502539 2.51484 0.674619 2.57915Z" fill="#263238"/>
</svg>
