<svg width="2" height="1" viewBox="0 0 2 1" fill="none" xmlns="http://www.w3.org/2000/svg">
<path d="M1.30477 0.0384285C0.919933 0.144843 0.542237 0.27558 0.173967 0.429857L0.226169 0.312419C0.27401 0.482039 0.317493 0.656014 0.365334 0.834333L0.230509 0.751696C0.687179 0.634267 1.10036 0.542935 1.42221 0.482046L1.36131 0.582083C1.32103 0.402266 1.30205 0.218328 1.30477 0.034075C1.30477 0.00797958 1.4048 0.186291 1.51788 0.542928L1.54399 0.616871L1.46135 0.642965C1.16125 0.738648 0.743716 0.856082 0.282698 0.973511L0.173967 0.999606L0.147872 0.890875L0.0217541 0.364621L0 0.281985L0.0739428 0.242843C0.345265 0.106486 0.640896 0.0251793 0.94379 0.00362716C1.03071 -0.00120905 1.11783 -0.00120905 1.20475 0.00362716C1.28738 0.0166749 1.31347 0.02973 1.30477 0.0384285Z" fill="#263238"/>
</svg>
