<svg width="3" height="2" viewBox="0 0 3 2" fill="none" xmlns="http://www.w3.org/2000/svg">
<path d="M2.64504 1.31042C2.7103 1.19591 2.79332 1.09248 2.891 1.00398V1.08059C2.56844 0.903181 2.04023 0.584655 1.41526 0.193544H1.49187L0.540296 0.439495L0.181448 0.528201L0.245963 0.37498C0.326588 0.519396 0.438165 0.644185 0.572707 0.740386C0.70725 0.836588 0.861421 0.901819 1.02415 0.931408L1.85476 1.09672C2.12115 1.13968 2.38301 1.20717 2.63698 1.29833C2.3788 1.30796 2.12037 1.28767 1.86685 1.23785L0.991899 1.11286C0.799666 1.08548 0.616341 1.01412 0.456192 0.904325C0.296044 0.794529 0.163387 0.649255 0.0685507 0.479818L0 0.362884L0.133065 0.326597L0.491913 0.237891L1.44349 0H1.4838L1.5201 0.0201677C2.14104 0.423375 2.64908 0.774155 2.94342 0.991887L2.99986 1.03221L2.95148 1.07253C2.75794 1.24994 2.64907 1.32655 2.64504 1.31042Z" fill="#263238"/>
</svg>
