<svg width="9" height="9" viewBox="0 0 9 9" fill="none" xmlns="http://www.w3.org/2000/svg">
<path d="M3.41014 0.172136C3.0713 0.29441 2.74097 0.4391 2.42135 0.605247C1.56253 1.08512 0.889272 1.83892 0.509105 2.74629C0.22841 3.41103 0.11875 4.13551 0.190126 4.85355C0.261501 5.57159 0.511637 6.2603 0.917702 6.85678C1.1431 7.19958 1.41855 7.5067 1.73489 7.76794C2.06724 8.04603 2.4426 8.26822 2.84628 8.42579C3.69366 8.77189 4.62958 8.83763 5.51702 8.61338C6.40446 8.38913 7.1968 7.88666 7.77804 7.17956C8.05647 6.84974 8.27997 6.47724 8.43996 6.07636C8.60262 5.69385 8.70596 5.28877 8.74641 4.87509C8.80638 4.2754 8.74137 3.6698 8.55547 3.09652C8.36957 2.52323 8.06683 1.99472 7.66637 1.54434C7.2659 1.09396 6.77641 0.731497 6.2288 0.479843C5.68118 0.228188 5.08733 0.0928094 4.48475 0.0822441C4.12373 0.0909199 3.76353 0.120937 3.40605 0.172136C3.75383 0.0563856 4.11823 -0.00157916 4.48475 0.000532275C5.33998 -0.012719 6.18078 0.221706 6.90577 0.675549C7.63076 1.12939 8.20898 1.78327 8.57072 2.55834C8.91516 3.2863 9.05634 4.09386 8.97932 4.89551C8.94288 5.32876 8.83807 5.75352 8.66878 6.15399C8.49997 6.57417 8.26702 6.96562 7.97825 7.31441C7.36847 8.0596 6.53551 8.58926 5.60204 8.82538C4.66856 9.06151 3.68392 8.99162 2.79316 8.626C2.37289 8.45991 1.98238 8.2267 1.63684 7.93547C1.29855 7.66139 1.00375 7.33765 0.762445 6.97526C0.313874 6.30733 0.0528201 5.53123 0.00653929 4.72798C-0.0396346 3.87598 0.15946 3.02859 0.580218 2.28629C1.00098 1.54399 1.62575 0.937901 2.38048 0.53987C2.70135 0.361941 3.04916 0.237723 3.41014 0.172136Z" fill="#263238"/>
</svg>
