<svg width="18" height="33" viewBox="0 0 18 33" fill="none" xmlns="http://www.w3.org/2000/svg">
<path d="M12.1234 0L16.7125 5.60155C17.2638 6.20891 17.5931 6.98504 17.6468 7.80349C17.7744 9.86137 17.9884 13.8084 17.7497 14.4175C17.4245 15.2407 13.6339 24.6411 13.7162 25.9417C13.7986 27.2422 14.2389 29.7364 14.2389 29.7364L2.63249 33.0002C2.63249 33.0002 1.75994 28.3782 1.34014 25.9746C0.920328 23.571 1.28663 17.2903 1.28663 17.2903C1.28663 17.2903 1.05204 15.5658 0.895639 15.0637C0.73924 14.5616 -0.153879 13.1869 0.0230987 11.9316C0.077895 11.5729 0.222462 11.2339 0.443367 10.9461C0.664272 10.6583 0.954337 10.431 1.28663 10.2853L2.13859 10.0795C2.18402 9.8376 2.28106 9.60833 2.42311 9.40733C2.56516 9.20633 2.74888 9.03832 2.96175 8.91475C3.69024 8.46201 5.37359 8.58136 5.37359 8.58136C5.37359 8.58136 5.51764 7.07088 6.77295 6.63461C7.12998 6.50538 7.51348 6.46668 7.88913 6.52199C8.26479 6.57729 8.62085 6.72488 8.92549 6.95152C8.92549 6.95152 8.88433 5.3793 9.89269 5.06239C10.5575 4.89385 11.2616 4.98665 11.86 5.32168C11.86 5.32168 10.7405 3.2638 11.0369 1.5928C11.3414 -1.96255e-06 12.1234 0 12.1234 0Z" fill="#FFBF9D"/>
</svg>
