<svg width="29" height="42" viewBox="0 0 29 42" fill="none" xmlns="http://www.w3.org/2000/svg">
<path d="M19.8625 41.9997H19.6432L19.0014 41.9306C18.6519 41.8987 18.3047 41.8459 17.9616 41.7722C17.4887 41.6921 17.0208 41.585 16.5602 41.4513L15.7478 41.2117L14.8624 40.8745C14.5414 40.7556 14.2269 40.62 13.92 40.4684L13.4285 40.2287C13.262 40.1434 13.0995 40.0419 12.933 39.9484C11.4111 39.0671 10.0398 37.9482 8.87111 36.634C7.46801 35.0266 6.34486 33.1949 5.54851 31.2154C4.75233 28.9051 4.08515 26.5524 3.55007 24.1681C2.33151 19.1476 1.16576 13.5747 0 7.68504V7.59568L0.0852957 7.56726L2.2584 6.77925C8.46899 4.52898 14.3465 2.31119 19.4685 0.0284236L19.5294 0L19.5741 0.0487404C20.8988 1.42737 22.075 2.94127 23.0836 4.56553C23.5832 5.32916 23.9934 6.12123 24.4077 6.8808C24.8221 7.64037 25.1633 8.41618 25.4638 9.17575C26.5561 11.7985 27.3438 14.5378 27.8116 17.3401C28.1254 19.1567 28.3114 20.9931 28.3681 22.8358C28.3965 23.4776 28.3681 23.9691 28.3681 24.3021C28.3681 24.4605 28.3681 24.5865 28.3681 24.6799C28.3681 24.7733 28.3681 24.8058 28.3681 24.8058C28.363 24.764 28.363 24.7217 28.3681 24.6799C28.3681 24.5865 28.3681 24.4605 28.3681 24.3021C28.3681 23.9691 28.3681 23.4898 28.3234 22.8399C28.2401 21.002 28.0365 19.1716 27.7141 17.3604C27.2299 14.5709 26.43 11.8454 25.3298 9.23668C25.0292 8.47711 24.6474 7.72973 24.2737 6.95391C23.9 6.17809 23.4613 5.41446 22.9495 4.65489C21.9415 3.04857 20.7694 1.5512 19.4523 0.186842L19.5619 0.207147C14.4359 2.52241 8.55835 4.73207 2.34776 6.98235L0.170591 7.77035L0.239649 7.64849C1.40134 13.5341 2.57116 19.107 3.76534 24.1275C4.29664 26.5049 4.95562 28.852 5.73942 31.1586C6.51684 33.1095 7.61364 34.9174 8.98484 36.508C10.1308 37.8173 11.4787 38.9349 12.9777 39.8185C13.1442 39.9159 13.3026 40.0175 13.4691 40.1028L13.9566 40.3424C14.2588 40.5039 14.5708 40.6463 14.8908 40.7689L15.7641 41.1101L16.5765 41.3579C17.0341 41.4966 17.4993 41.6092 17.9697 41.695C18.3096 41.775 18.6542 41.8333 19.0014 41.8697L19.6432 41.9631L19.8625 41.9997Z" fill="#263238"/>
</svg>
