<svg width="1" height="4" viewBox="0 0 1 4" fill="none" xmlns="http://www.w3.org/2000/svg">
<path d="M0.999733 3.25429C0.840671 2.95894 0.726943 2.64133 0.662371 2.31215L0.72408 2.38209L0.27564 2.24633H0.222155V2.18873C0.189241 2.05707 0.152223 1.92131 0.115195 1.77731C0.0781682 1.63332 0.0370273 1.45641 0 1.30007V1.2507L0.0287894 1.21368L0.349692 0.802263V0.876314C0.262255 0.592532 0.219235 0.296932 0.222155 0C0.366468 0.25647 0.469234 0.534191 0.52661 0.822828V0.859854L0.497808 0.896892L0.201589 1.30831V1.2219L0.325008 1.69502L0.423756 2.10644L0.35381 2.03239L0.798132 2.18461H0.851618V2.23399C0.950195 2.56511 1.00009 2.9088 0.999733 3.25429Z" fill="#263238"/>
</svg>
