<svg width="1" height="4" viewBox="0 0 1 4" fill="none" xmlns="http://www.w3.org/2000/svg">
<path d="M0.807992 3.30218C0.6527 3.00114 0.539221 2.68032 0.470696 2.34859V2.29861L0.508172 2.25698L0.82882 1.91135L0.803824 2.00713L0.695564 1.59071C0.653923 1.42415 0.616446 1.26591 0.578968 1.10767L0.63726 1.17845L0.170876 0.953596L0.129232 0.932768V0.891136C0.0406981 0.602484 -0.00284107 0.30191 0.000143664 0C0.144319 0.260461 0.248222 0.541256 0.3083 0.832832L0.254164 0.774528L0.73304 0.974412L0.774684 0.99524V1.04521C0.812162 1.20345 0.853798 1.36168 0.899604 1.52408L0.99954 1.9405V1.99879L0.962064 2.04044L0.624768 2.37358L0.645596 2.28612C0.750867 2.61463 0.805619 2.95722 0.807992 3.30218Z" fill="#263238"/>
</svg>
