<svg width="41" height="39" viewBox="0 0 41 39" fill="none" xmlns="http://www.w3.org/2000/svg">
<path d="M13.3324 0.160348C20.4602 -0.485032 27.4776 0.728118 32.8613 5.44184C37.8037 9.76752 40.1279 13.9135 40.904 20.6328C41.1695 22.9365 40.4751 28.0873 39.6786 30.2563C38.8821 32.4252 36.5865 37.9396 34.4584 38.8545C32.3302 39.7695 31.0599 36.13 29.4506 34.4635C28.4621 33.4464 27.9678 32.0658 27.4776 30.7342C25.4353 25.1137 22.9845 19.5095 19.1449 14.9265C15.3053 10.3435 9.7869 6.8388 3.80693 6.57738L0 6.71218C4.57484 1.70844 8.63501 0.589239 13.3324 0.160348Z" fill="#455A64"/>
</svg>
