<svg width="22" height="3" viewBox="0 0 22 3" fill="none" xmlns="http://www.w3.org/2000/svg">
<path d="M21.9998 1.01873C21.925 1.02177 21.8506 1.03124 21.7774 1.04703L21.1387 1.16022C20.8598 1.21682 20.5202 1.27746 20.124 1.33405C19.7278 1.39065 19.2832 1.47554 18.7819 1.53214C17.7874 1.66959 16.5908 1.77469 15.2648 1.8515C13.9388 1.92831 12.4714 1.92427 10.9393 1.8515C9.40711 1.77874 7.94773 1.62916 6.63389 1.44724C5.32005 1.26533 4.13557 1.04299 3.15727 0.808518C2.66407 0.70341 2.22343 0.586175 1.83938 0.489153C1.45533 0.392131 1.11576 0.303192 0.844906 0.222341L0.222344 0.0485091C0.149531 0.0268637 0.0752116 0.0106509 0 0C0.0656574 0.0391536 0.136395 0.0690777 0.210216 0.0889344L0.824692 0.299151C1.0915 0.388088 1.41895 0.493194 1.80704 0.598301C2.19513 0.703409 2.61556 0.836814 3.12493 0.945964C4.10323 1.1966 5.28367 1.42299 6.60559 1.6332C7.92752 1.84342 9.38689 1.98087 10.9312 2.05768C12.4754 2.13449 13.9389 2.10215 15.2729 2.03342C16.607 1.9647 17.8036 1.82725 18.8021 1.66959C19.3034 1.60491 19.7521 1.51597 20.1442 1.4432C20.5364 1.37044 20.88 1.30171 21.1508 1.23299L21.7855 1.08341C21.8598 1.0729 21.9321 1.05109 21.9998 1.01873Z" fill="#455A64"/>
</svg>
