<svg width="31" height="13" viewBox="0 0 31 13" fill="none" xmlns="http://www.w3.org/2000/svg">
<path d="M30.9998 0C30.9089 0.0685496 30.8126 0.129603 30.7118 0.182548L29.864 0.677442C29.1257 1.10338 28.0467 1.69562 26.6959 2.40957C24.0024 3.8334 20.2055 5.68722 15.9258 7.4802C11.6462 9.27318 7.64651 10.6605 4.738 11.5732C3.28577 12.0316 2.10127 12.3845 1.28186 12.6076L0.33263 12.8632C0.223456 12.8957 0.112367 12.9215 0 12.9403C0.102718 12.8907 0.210051 12.8513 0.320461 12.8226L1.25752 12.5265C2.06882 12.279 3.2452 11.9058 4.69338 11.4312C7.58567 10.4861 11.5529 9.0744 15.8407 7.28548C20.1284 5.49656 23.9212 3.66709 26.631 2.27571C27.9858 1.58204 29.0649 1.01007 29.8234 0.604416L30.6915 0.146041C30.7902 0.0891034 30.8933 0.0402586 30.9998 0Z" fill="#263238"/>
</svg>
