<svg width="8" height="15" viewBox="0 0 8 15" fill="none" xmlns="http://www.w3.org/2000/svg">
<path d="M7.90933 15.0004C7.75873 14.8317 7.62256 14.6506 7.50226 14.459C7.26209 14.1049 6.92015 13.5838 6.51716 12.9325C5.70302 11.6258 4.64058 9.7859 3.56592 7.70171C2.49126 5.61753 1.59571 3.69209 0.968823 2.29178C0.65131 1.58755 0.403002 1.02174 0.240175 0.622813C0.144126 0.421735 0.0638233 0.213505 0 0C0.1219 0.186993 0.226802 0.384525 0.313444 0.590241L1.10316 2.21851C1.76668 3.60254 2.68258 5.51576 3.75316 7.59587C4.82375 9.67599 5.86585 11.5241 6.64335 12.8471L7.57146 14.4061C7.70178 14.5936 7.81486 14.7925 7.90933 15.0004Z" fill="#263238"/>
</svg>
