<svg width="9" height="9" viewBox="0 0 9 9" fill="none" xmlns="http://www.w3.org/2000/svg">
<path d="M3.39531 0.137692C4.2582 -0.0808172 5.1665 -0.0385041 6.00534 0.259271C6.84418 0.557046 7.57585 1.09691 8.10783 1.81057C8.63981 2.52424 8.94819 3.37964 8.99395 4.26859C9.03972 5.15753 8.82081 6.04009 8.36494 6.80461C7.90906 7.56914 7.23668 8.18127 6.43285 8.56361C5.62903 8.94596 4.72987 9.08132 3.84911 8.95258C2.96835 8.82384 2.14555 8.43677 1.48479 7.84035C0.824038 7.24392 0.355001 6.46493 0.137024 5.60191C-0.155118 4.44526 0.0240023 3.21993 0.63499 2.19529C1.24598 1.17065 2.23884 0.430546 3.39531 0.137692Z" fill="white"/>
</svg>
