<svg width="5" height="14" viewBox="0 0 5 14" fill="none" xmlns="http://www.w3.org/2000/svg">
<path d="M4.20148 13.7346C4.20148 13.6391 3.18435 13.4606 1.52373 13.2447C1.10858 13.199 0.693423 13.116 0.635302 12.8295C0.57718 12.5431 0.714182 12.0698 0.921759 11.5841C1.33691 10.5669 1.75207 9.50829 2.16722 8.38322C3.90672 3.81652 5.16879 0.080133 4.98197 0.00125367C4.79515 -0.0776256 3.23832 3.57573 1.49882 8.13412L0.299028 11.3599C0.141269 11.8373 -0.136884 12.377 0.0789964 13.0205C0.138938 13.169 0.232291 13.3016 0.351809 13.4082C0.471327 13.5148 0.613797 13.5923 0.768154 13.6349C1.00081 13.6996 1.24076 13.7345 1.48222 13.7387C3.15944 13.8176 4.19733 13.83 4.20148 13.7346Z" fill="#263238"/>
</svg>
