<svg width="3" height="3" viewBox="0 0 3 3" fill="none" xmlns="http://www.w3.org/2000/svg">
<path d="M0.000151586 1.3583C-0.0054229 1.75062 0.142944 2.12951 0.413442 2.41372C0.683941 2.69793 1.05504 2.86484 1.44715 2.87866C1.63847 2.89419 1.83097 2.87129 2.0133 2.81129C2.19563 2.75129 2.36411 2.65542 2.50882 2.52932C2.65354 2.40321 2.77156 2.24943 2.85594 2.07702C2.94031 1.90461 2.98934 1.71706 3.00013 1.52542C3.00466 1.1334 2.85594 0.755098 2.58566 0.471112C2.31538 0.187125 1.94489 0.019896 1.55312 0.00504777C1.36169 -0.0110525 1.16897 0.0114551 0.986402 0.0712365C0.803831 0.131018 0.635127 0.226855 0.490291 0.353064C0.345455 0.479273 0.227441 0.633278 0.143245 0.805955C0.05905 0.978631 0.0103911 1.16646 0.000151586 1.3583Z" fill="#263238"/>
</svg>
