<svg width="26" height="7" viewBox="0 0 26 7" fill="none" xmlns="http://www.w3.org/2000/svg">
<path d="M25.9999 5.17666C25.9061 5.18896 25.814 5.2113 25.725 5.24329L24.9462 5.47235L24.3882 5.6431C24.1841 5.7014 23.9717 5.74722 23.7135 5.80552C23.2262 5.9138 22.6807 6.07206 22.0476 6.15535L21.0773 6.31777C20.74 6.37608 20.3818 6.39273 20.0153 6.43438C19.2823 6.526 18.4952 6.53433 17.6664 6.55932C15.8699 6.55224 14.078 6.37515 12.3149 6.03041C10.5558 5.65458 8.83537 5.11642 7.17569 4.42286L6.08455 3.92726C5.72223 3.77317 5.39738 3.57327 5.06838 3.40668C4.73937 3.2401 4.42286 3.08184 4.13133 2.89859L3.2984 2.38634C2.757 2.074 2.30722 1.72 1.89492 1.44097C1.69085 1.29937 1.47845 1.17027 1.32852 1.0245L0.87041 0.662181L0.229057 0.166587C0.157056 0.105309 0.0804804 0.0496181 0 0C0 0 0.062472 0.0749642 0.20407 0.195739C0.345668 0.316514 0.56223 0.508086 0.816274 0.724648L1.26606 1.10363C1.43264 1.24107 1.62421 1.37017 1.82412 1.5201C2.24058 1.80746 2.67787 2.16978 3.21927 2.49462L4.0522 3.01937C4.34373 3.20678 4.66857 3.36087 4.98925 3.54412C5.30992 3.72736 5.64727 3.91893 6.00959 4.07719L7.11738 4.58528C8.78565 5.29286 10.5177 5.83952 12.2899 6.21782C14.0731 6.56816 15.8866 6.74114 17.7039 6.73424C18.5369 6.70508 19.3281 6.68842 20.0653 6.58847C20.4359 6.54266 20.7941 6.526 21.1314 6.45937L22.106 6.28446C22.6676 6.18612 23.2237 6.05823 23.7718 5.90131C24.0134 5.83884 24.2424 5.78886 24.4465 5.72223L25.0004 5.53482L25.7667 5.26412C25.8465 5.24082 25.9244 5.21159 25.9999 5.17666Z" fill="#455A64"/>
</svg>
