<svg width="1" height="4" viewBox="0 0 1 4" fill="none" xmlns="http://www.w3.org/2000/svg">
<path d="M0.808909 3.28885C0.649467 2.99071 0.534883 2.67068 0.468835 2.3391V2.28933L0.50616 2.25201L0.825502 1.90363L0.800619 1.99901C0.76744 1.8663 0.730114 1.73358 0.696935 1.58428C0.663756 1.43497 0.618131 1.26078 0.576658 1.10318L0.634727 1.1737L0.174364 0.949735L0.128749 0.929003V0.887527C0.0401824 0.600127 -0.00318992 0.300718 0.000182557 0C0.143776 0.259409 0.247247 0.539071 0.307083 0.829471L0.257316 0.771402L0.730108 0.970479L0.775735 0.991211V1.04098L0.900151 1.51792C0.93333 1.65893 0.966517 1.79718 0.999696 1.93266V1.99072L0.95822 2.0322L0.622285 2.36398L0.647169 2.27689C0.749402 2.60469 0.803871 2.94551 0.808909 3.28885Z" fill="#263238"/>
</svg>
