<svg width="34" height="48" viewBox="0 0 34 48" fill="none" xmlns="http://www.w3.org/2000/svg">
<path d="M2.43235 21.5735C2.43235 21.5735 2.45647 21.5373 2.51275 21.469L2.77006 21.1634L3.77517 19.9895L7.59455 15.567L21.0508 0.0924737L21.1313 0L21.1996 0.10051C24.6933 5.06973 28.6092 10.646 32.7341 16.5198L33.2488 17.2556L33.2849 17.3078L33.2568 17.3601C30.3058 23.258 27.1418 28.7137 23.6802 33.2568C22.0418 35.4102 20.2508 37.443 18.321 39.3397C16.6731 41.0118 14.9003 42.5561 13.0181 43.9591C9.52836 46.508 6.11504 47.6619 3.7229 47.887L2.87459 47.9795L2.1268 47.9996H1.48755L0.960883 47.9675L0.241227 47.9192C0.0804105 47.9192 0 47.8951 0 47.8951C0 47.8951 0.0804083 47.8951 0.245245 47.8951L0.960883 47.9232H1.48755L2.1268 47.8991L2.87058 47.8669L3.71084 47.7664C6.0869 47.5172 9.47208 46.3512 12.9336 43.8023C14.8067 42.3958 16.5701 40.8489 18.2084 39.1748C20.129 37.2954 21.9132 35.2814 23.5475 33.1482C26.989 28.6132 30.141 23.1656 33.092 17.2757V17.3842L32.5733 16.6485L21.0468 0.217105H21.1956L7.67898 15.6434L3.82341 20.0216L2.79419 21.1755L2.52482 21.469C2.4961 21.5056 2.46521 21.5405 2.43235 21.5735Z" fill="#263238"/>
</svg>
