<svg width="39" height="33" viewBox="0 0 39 33" fill="none" xmlns="http://www.w3.org/2000/svg">
<path d="M4.55456 5.39657C6.94067 2.96177 10.1505 1.50089 13.4497 0.689292C16.3022 -0.0365601 19.2701 -0.191024 22.1825 0.234794C28.6753 0.234794 37.0064 9.40588 38.5322 15.712C39.2586 18.723 39.0151 21.8761 38.6337 24.948C38.4429 26.5104 38.2076 28.097 37.5299 29.5133C36.8522 30.9295 35.651 32.1834 34.1171 32.5527C32.5832 32.922 30.7611 32.1834 30.2133 30.7104C29.8075 29.6026 30.1403 28.3283 29.7507 27.2124C28.8539 24.664 24.942 24.4935 23.6637 22.1034C22.7547 20.3787 23.5663 18.0941 22.5721 16.4222C21.5779 14.7503 19.415 14.4703 17.6335 13.7845C16.1618 13.1968 14.8509 12.2678 13.8089 11.074C12.7668 9.88023 12.0233 8.45586 11.6398 6.91832H11.4937C4.41659 7.10905 1.0728 18.3457 0.19221 21.446C-0.655913 17.0187 1.39338 8.60645 4.55456 5.39657Z" fill="#263238"/>
</svg>
