<svg width="6" height="6" viewBox="0 0 6 6" fill="none" xmlns="http://www.w3.org/2000/svg">
<path d="M5.28406 0.254227C5.62495 0.700609 5.85295 1.22274 5.94866 1.77618C6.04437 2.32963 6.00496 2.898 5.83378 3.43294C5.6626 3.96788 5.36472 4.45354 4.96549 4.8486C4.56626 5.24366 4.07749 5.53643 3.54078 5.70198C3.11552 5.84725 2.65405 5.84725 2.22878 5.70198C1.49334 5.42505 1.12561 4.61697 0.835064 3.88606C0.589915 3.28227 0.349305 2.67394 0.104157 2.07014C0.0501807 1.9744 0.016308 1.86866 0.00459922 1.75938C-0.00710952 1.6501 0.00359461 1.53958 0.0360625 1.43458C0.104297 1.33806 0.192137 1.25703 0.293837 1.19679C0.395536 1.13656 0.508805 1.09847 0.626237 1.08501L5.16603 0" fill="#FF9A6C"/>
</svg>
