<svg width="10" height="69" viewBox="0 0 10 69" fill="none" xmlns="http://www.w3.org/2000/svg">
<path d="M7.66083 69C7.66083 69 7.69723 68.9474 7.75791 68.8422L8.01678 68.369C8.34849 67.7528 8.63507 67.1134 8.87427 66.4558C9.2326 65.4152 9.48201 64.3403 9.61851 63.2483C9.79981 61.7997 9.78757 60.3334 9.58211 58.888C9.31945 57.1349 8.76146 55.439 7.93184 53.8725C7.04199 52.1858 5.80427 50.5517 4.96296 48.6142C4.74355 48.1182 4.56368 47.6056 4.42501 47.0813C4.30404 46.5498 4.23362 46.0081 4.21468 45.4634C4.21252 44.3307 4.34834 43.202 4.61916 42.1021C4.86185 40.9696 5.18139 39.829 5.42812 38.656C5.70384 37.4624 5.83958 36.2407 5.8326 35.0157C5.7881 32.5241 5.16116 30.1619 4.47354 27.9454C3.78593 25.7289 3.00933 23.6215 2.45115 21.5627C1.434 17.922 0.740989 14.1984 0.380225 10.4355C0.146433 7.89851 0.0586542 5.35014 0.117317 2.80303C0.14563 1.90104 0.169896 1.18512 0.202254 0.728062C0.202254 0.49751 0.202253 0.323579 0.226522 0.186057C0.25079 0.0485339 0.226522 0 0.226522 0C0.216484 0.0616173 0.209738 0.123722 0.206303 0.186057C0.206303 0.31549 0.177983 0.493461 0.161804 0.724013C0.117311 1.19725 0.0768681 1.897 0.0404651 2.79899C-0.0520622 5.35019 0.0141263 7.90469 0.238655 10.4477C0.576439 14.2207 1.2533 17.9556 2.26105 21.6072C2.81923 23.6701 3.5756 25.7855 4.28344 27.998C4.99128 30.2105 5.58586 32.5524 5.62631 35.0076C5.66676 37.4628 4.90634 39.7804 4.41287 42.0496C4.14593 43.1675 4.01688 44.314 4.02861 45.4634C4.04799 46.0219 4.12114 46.5772 4.24704 47.1217C4.3787 47.6522 4.55181 48.1715 4.76477 48.6749C5.62226 50.6528 6.86806 52.2829 7.75387 53.9331C8.58206 55.4809 9.14273 57.1574 9.41222 58.892C9.78582 61.4154 9.56703 63.9911 8.77315 66.4153C8.54353 67.0706 8.27336 67.7109 7.96419 68.3326C7.86307 68.5388 7.78218 68.7006 7.7215 68.8139L7.66083 69Z" fill="#455A64"/>
</svg>
