<svg width="94" height="94" viewBox="0 0 94 94" fill="none" xmlns="http://www.w3.org/2000/svg">
<path d="M77.0442 57.4614L73.8546 34.9318L94.0001 37.5547L88.3333 20.1293C86.9004 15.4906 84.1116 9.04261 81.3267 6.84065C77.6352 3.91819 70.8027 0.894546 62.4199 0C62.4199 0 56.6438 8.1683 42.7439 7.56114C28.844 6.95398 25.9985 0.46144 25.9985 0.46144C25.5209 0.760971 12.2079 4.10439 7.92543 7.71496C3.64295 11.3255 0 24.0354 0 24.0354L16.1099 54.3163C16.1099 54.3163 6.80017 73.7454 6.62207 93.8463H85.6497C85.6497 93.8463 81.3672 80.6629 79.2138 69.3415C78.3557 64.8404 77.0442 57.4614 77.0442 57.4614Z" fill="#455A64"/>
</svg>
