<svg width="1" height="4" viewBox="0 0 1 4" fill="none" xmlns="http://www.w3.org/2000/svg">
<path d="M0.99963 3.26737C0.840604 2.97093 0.727764 2.65194 0.665033 2.32144L0.727004 2.39166L0.272626 2.25535H0.218926V2.19751L0.115659 1.78444C0.0743517 1.61922 0.0371761 1.46226 0 1.3053V1.25572L0.0289178 1.21854L0.346976 0.805475V0.879837C0.256928 0.595333 0.212317 0.298404 0.214791 0C0.359685 0.257501 0.462863 0.536338 0.52047 0.826136V0.863311L0.495687 0.900485L0.194142 1.31355V1.22681L0.318058 1.70184C0.355234 1.84228 0.388279 1.97446 0.421325 2.11491L0.35111 2.04056L0.797218 2.19339H0.846784V2.24296C0.949818 2.5746 1.00137 2.92009 0.99963 3.26737Z" fill="#263238"/>
</svg>
