<svg width="3" height="3" viewBox="0 0 3 3" fill="none" xmlns="http://www.w3.org/2000/svg">
<path d="M2.56637 0.0313597C2.69992 0.0563012 2.82869 0.102154 2.94794 0.167246H3.00019L2.97406 0.229966C2.7859 0.632431 2.42002 1.34851 1.9287 2.21094V2.26321H1.87121L0.522683 2.61341L0.172494 2.70226L0 2.74408V2.56636C0.00559357 2.30545 0.0729241 2.0496 0.196484 1.81974C0.320045 1.58988 0.496327 1.39256 0.710856 1.24397L1.67781 0.554042C1.9527 0.339884 2.24867 0.154248 2.56114 0C2.31026 0.266619 2.0356 0.509794 1.74054 0.72652C1.46875 0.951274 1.17082 1.18649 0.857207 1.43738C0.677874 1.56883 0.5316 1.74022 0.429991 1.938C0.328382 2.13577 0.274217 2.35449 0.271789 2.57682L0.104543 2.44092L0.454731 2.35207L1.80326 2.01755L1.72486 2.08027C2.21096 1.22307 2.61865 0.538362 2.86431 0.16203L2.89043 0.240429C2.77255 0.187357 2.66332 0.116883 2.56637 0.0313597Z" fill="#263238"/>
</svg>
