<svg width="77" height="84" viewBox="0 0 77 84" fill="none" xmlns="http://www.w3.org/2000/svg">
<path d="M2.97038 54.1304C4.24082 52.0559 5.94948 50.2266 6.84602 47.9671C7.37087 46.464 7.70714 44.9015 7.8471 43.3155C9.45525 30.9247 -3.812 37.9564 9.78894 0H49.3253C55.4288 9.63283 59.0442 20.6308 59.8467 32.0062C60.2487 37.8679 60.2085 44.5096 64.4942 48.526C66.3034 50.2226 68.8443 51.4005 69.6403 53.7524C70.3197 55.7626 69.4674 57.9819 69.8494 60.0644C70.2996 62.5048 72.3138 64.2939 73.8014 66.284C75.9413 69.1696 77.0652 72.6827 76.9976 76.2746C76.9574 77.9873 76.5232 79.8929 75.0919 80.8216C74.2034 81.4006 73.1018 81.5011 72.0445 81.5815C48.9474 83.3665 25.5971 85.1436 2.71307 81.5292C1.50696 76.9862 0.300846 72.403 0.0475621 67.7072C-0.205722 63.0114 0.521968 58.1427 2.97038 54.1304Z" fill="#263238"/>
</svg>
