<svg width="11" height="6" viewBox="0 0 11 6" fill="none" xmlns="http://www.w3.org/2000/svg">
<path d="M0 5.99908C0.0768188 5.85277 0.170036 5.71568 0.277858 5.59046C0.37184 5.4597 0.502598 5.31259 0.653787 5.14097C0.804976 4.96935 0.984771 4.7773 1.19317 4.57708C2.2854 3.5409 3.50956 2.65335 4.83396 1.9374C6.14965 1.20682 7.55295 0.64659 9.01005 0.270228C9.292 0.200762 9.54534 0.143562 9.77417 0.110873C9.96578 0.072089 10.1595 0.044794 10.3544 0.029144C10.5205 0.00200939 10.6891 -0.00621449 10.857 0.00462784C10.857 0.0454897 10.1501 0.106783 9.05091 0.413247C7.61974 0.82687 6.2395 1.39979 4.93612 2.12127C3.62644 2.82986 2.40448 3.68977 1.29532 4.68332C0.453566 5.44744 0.0326895 6.02359 0 5.99908Z" fill="#263238"/>
</svg>
