<svg width="35" height="25" viewBox="0 0 35 25" fill="none" xmlns="http://www.w3.org/2000/svg">
<path d="M0 15.9694C0.960504 12.7588 2.82269 9.89153 5.3652 7.70842C7.65768 5.73769 10.2317 3.57793 10.8993 3.21998C11.8828 2.76239 12.9342 2.46763 14.0123 2.34723C14.0123 2.34723 29.6735 -0.182538 32.887 0.0105125C36.1005 0.203563 35.4168 3.32053 32.4003 3.41705C29.3839 3.51358 22.7679 5.55268 22.7679 5.55268C23.1634 5.74148 23.4892 6.05043 23.6987 6.43541C23.9081 6.82039 23.9906 7.2617 23.9343 7.69634C23.8377 9.34933 22.8644 9.54641 22.8644 9.54641C22.8644 9.54641 23.5441 11.0064 23.4476 11.8791C23.3511 12.7519 22.4743 13.9142 22.4743 13.9142C22.4743 13.9142 23.4476 15.1891 22.961 16.3555C22.4743 17.5218 20.7248 18.9818 20.7248 18.9818C20.7248 18.9818 13.7066 22.875 12.303 22.7784C11.2835 22.7237 10.2618 22.7237 9.2423 22.7784L7.8829 24.1419L0 15.9694Z" fill="#FFBF9D"/>
</svg>
