<svg width="35" height="12" viewBox="0 0 35 12" fill="none" xmlns="http://www.w3.org/2000/svg">
<path d="M34.7977 0L34.7157 0.0533035L34.4697 0.18451L33.5103 0.668321C32.6902 1.07833 31.4602 1.67285 29.935 2.36987C26.8968 3.75571 22.6327 5.53926 17.815 7.20391C12.9974 8.86856 8.53645 10.0945 5.28505 10.8735C3.645 11.2835 2.34527 11.5582 1.42684 11.7386L0.373112 11.9478L0.0984051 11.997C0.0657616 12.0015 0.0326434 12.0015 0 11.997L0.0902031 11.9682L0.36491 11.8985L1.41044 11.6484C2.32067 11.4434 3.6327 11.1277 5.25225 10.7177C8.48724 9.89769 12.9277 8.66765 17.7453 6.9948C22.563 5.32195 26.823 3.57531 29.8735 2.22227C31.3987 1.54575 32.6287 0.992234 33.4734 0.582222L34.4492 0.131207L34.7075 0.0204956C34.769 -5.00533e-06 34.7936 0 34.7977 0Z" fill="#263238"/>
</svg>
