<svg width="7" height="6" viewBox="0 0 7 6" fill="none" xmlns="http://www.w3.org/2000/svg">
<path d="M2.68733 5.95691C2.68733 6.00316 3.50132 6.09566 4.7778 5.6933C5.55888 5.44548 6.21886 4.91419 6.62777 4.20407C6.86298 3.76843 6.96131 3.27198 6.90989 2.77958C6.87913 2.27111 6.75528 1.77261 6.54452 1.30886C6.33642 0.857396 6.0427 0.450589 5.67966 0.110994L5.55941 0L5.40679 0.055497C2.35896 1.12848 -0.0275101 1.67422 0.000239555 1.80372C0.0279892 1.93322 2.47458 1.60948 5.58253 0.564243L5.30966 0.508739C5.61677 0.802794 5.86481 1.15287 6.04041 1.5401C6.3919 2.36334 6.53065 3.31608 6.17915 3.9682C5.84263 4.58511 5.30355 5.06701 4.65292 5.33255C3.49207 5.79504 2.6642 5.85516 2.68733 5.95691Z" fill="#263238"/>
</svg>
