<svg width="45" height="12" viewBox="0 0 45 12" fill="none" xmlns="http://www.w3.org/2000/svg">
<path d="M44.9995 0C44.9931 0.045527 44.9822 0.0903222 44.9671 0.133759C44.9387 0.231038 44.8982 0.35669 44.8536 0.514768C44.7013 1.00454 44.5171 1.48385 44.3024 1.94963C43.9553 2.68539 43.5401 3.38697 43.0621 4.04518C42.434 4.92215 41.7078 5.7245 40.8976 6.43661C38.7807 8.29103 36.2731 9.64457 33.5612 10.3967C31.9631 10.8295 30.3278 11.1104 28.677 11.2357C26.9066 11.3614 25.1295 11.3614 23.3591 11.2357C21.5432 11.11 19.776 10.8952 18.0898 10.6439C16.4036 10.3926 14.758 10.121 13.2259 9.77651C10.4727 9.23091 7.82736 8.23825 5.39492 6.83789C3.76581 5.87466 2.32291 4.62671 1.13492 3.15346C0.696101 2.61712 0.315648 2.03557 0 1.41865C0 1.41865 0.032425 1.45513 0.0810644 1.52809L0.295894 1.86451C0.574245 2.29289 0.875995 2.7056 1.19977 3.10076C2.40048 4.54524 3.84671 5.76644 5.47193 6.70818C7.89833 8.08143 10.5303 9.05454 13.2664 9.59006C14.8026 9.92649 16.432 10.194 18.1303 10.4413C19.8287 10.6885 21.5878 10.8993 23.3996 11.0249C25.1539 11.1478 26.9146 11.1478 28.6689 11.0249C30.3121 10.9083 31.9406 10.6369 33.5328 10.2143C36.2235 9.47711 38.716 8.14918 40.8287 6.32717C41.6352 5.62777 42.3611 4.84062 42.9931 3.98032C43.4753 3.33307 43.8985 2.64397 44.2578 1.92126C44.4784 1.4609 44.6732 0.988638 44.8414 0.50666C44.8941 0.348582 44.9387 0.226987 44.9752 0.129708C44.9792 0.0858012 44.9873 0.0423688 44.9995 0Z" fill="#263238"/>
</svg>
