<svg width="4" height="4" viewBox="0 0 4 4" fill="none" xmlns="http://www.w3.org/2000/svg">
<path d="M0.942816 3.99982C0.834807 3.71878 0.744831 3.43114 0.673438 3.13864C0.514261 2.57132 0.265294 1.75094 0.0244877 0.76323L0 0.673438L0.093878 0.64895L2.61622 0L2.74682 0.0775487V0.102036V0.13061V0.183671L2.77539 0.297951L2.82845 0.522426L2.93865 0.963218L3.15088 1.80808C3.28149 2.355 3.40802 2.86518 3.5223 3.33454L3.5427 3.42434L3.45699 3.44475C2.67335 3.6325 2.02848 3.77535 1.58768 3.8529C1.36648 3.91097 1.14144 3.95325 0.914242 3.97942C1.14495 3.89179 1.38075 3.81819 1.62034 3.75902C2.05705 3.62841 2.67335 3.45292 3.41618 3.25701L3.35087 3.36312C3.22843 2.89375 3.09782 2.38357 2.94273 1.84481C2.86926 1.56727 2.79987 1.28566 2.72232 0.995876L2.61213 0.559158L2.555 0.334682L2.52642 0.220402V0.163256V0.134683V0.11428C2.41214 0.0448955 2.6856 0.204069 2.65703 0.187744L0.155097 0.840779L0.224475 0.726499C0.453037 1.6734 0.632624 2.48153 0.76323 3.06109C0.893837 3.64066 0.963223 3.9835 0.942816 3.99982Z" fill="#263238"/>
</svg>
