<svg width="1" height="1" viewBox="0 0 1 1" fill="none" xmlns="http://www.w3.org/2000/svg">
<path d="M0.463818 0.861184C0.463818 0.812831 0.595061 0.785201 0.65723 0.667772C0.677728 0.639215 0.690346 0.605761 0.693825 0.570781C0.697305 0.535802 0.691516 0.500535 0.677045 0.468499C0.662575 0.436464 0.639947 0.408802 0.611401 0.388289C0.582855 0.367776 0.549409 0.355128 0.514432 0.35163C0.479454 0.348132 0.444172 0.353893 0.412129 0.368347C0.380086 0.382801 0.352404 0.405434 0.331876 0.43397C0.311348 0.462505 0.298691 0.495943 0.295175 0.530918C0.291659 0.565894 0.297412 0.601192 0.31185 0.633242C0.353295 0.757579 0.470725 0.812831 0.463818 0.861184C0.45691 0.909537 0.291128 0.97861 0.0977154 0.771382C0.0472971 0.705305 0.0150241 0.627186 0.00411865 0.544789C-0.0067868 0.462392 0.00405697 0.378588 0.0355494 0.30167C0.0781466 0.204575 0.150263 0.123375 0.241652 0.0696171C0.333041 0.0158595 0.439037 -0.00772081 0.544598 0.00222327C0.650158 0.0121673 0.749904 0.0551376 0.829646 0.125016C0.909388 0.194895 0.965087 0.288131 0.988803 0.391472C1.00655 0.471396 1.00244 0.55461 0.976913 0.632399C0.951389 0.710189 0.905374 0.779673 0.843728 0.833548C0.622684 0.978608 0.450003 0.861184 0.463818 0.861184Z" fill="#263238"/>
</svg>
