<svg width="3" height="2" viewBox="0 0 3 2" fill="none" xmlns="http://www.w3.org/2000/svg">
<path d="M0.198672 0.00211018C0.165819 0.102538 0.119442 0.198016 0.0608167 0.285926V0.22105C0.364913 0.38729 0.900123 0.707609 1.54481 1.11307H1.46777L2.51385 0.845464L2.78552 0.77653L2.72064 0.930608C2.63737 0.781456 2.52093 0.65343 2.38033 0.556415C2.23973 0.459399 2.07872 0.395985 1.90972 0.371069L1.04203 0.212946C0.766647 0.171399 0.495343 0.106282 0.231104 0.0183197C0.502539 0.00455536 0.774656 0.0222449 1.04203 0.0710317L1.95837 0.18456C2.15929 0.208094 2.35191 0.278286 2.52087 0.389518C2.68983 0.50075 2.83044 0.649947 2.93148 0.825196L3.00041 0.94683L2.8666 0.979261L2.59495 1.0482L1.54481 1.3077H1.50426L1.46777 1.28742C0.831194 0.881954 0.320305 0.517046 0.0405362 0.306206L0 0.277821L0.0243267 0.241331C0.121637 0.0629279 0.194617 -0.0141083 0.198672 0.00211018Z" fill="#263238"/>
</svg>
