<svg width="3" height="3" viewBox="0 0 3 3" fill="none" xmlns="http://www.w3.org/2000/svg">
<path d="M0.000153253 1.35797C-0.00544999 1.75069 0.142788 2.13003 0.413183 2.41489C0.683577 2.69976 1.05468 2.86756 1.44716 2.88242C1.63848 2.89795 1.83097 2.87503 2.0133 2.81504C2.19563 2.75504 2.36412 2.65917 2.50883 2.53307C2.65355 2.40696 2.77156 2.25318 2.85594 2.08077C2.94032 1.90836 2.98934 1.72081 3.00013 1.52916C3.0047 1.13674 2.85611 0.757995 2.58593 0.473355C2.31576 0.188715 1.94526 0.0206001 1.55313 0.00471652C1.36181 -0.0108124 1.16932 0.0120959 0.986988 0.0720932C0.804657 0.13209 0.636171 0.227967 0.491456 0.35407C0.346741 0.480173 0.228724 0.633954 0.144348 0.806363C0.0599715 0.978773 0.0109431 1.16633 0.000153253 1.35797Z" fill="#263238"/>
</svg>
