<svg width="4" height="5" viewBox="0 0 4 5" fill="none" xmlns="http://www.w3.org/2000/svg">
<path d="M3.99962 3.87742C3.87313 3.52574 3.76436 3.16792 3.67374 2.80534C3.48483 2.14414 3.22508 1.22321 2.93699 0.132238L3.07395 0.212518L0.155258 0.982338L0.244993 0.835932V0.897331V0.95873L0.278042 1.09097L0.344168 1.35072L0.471679 1.86077C0.550392 2.19452 0.630685 2.5204 0.712547 2.8384C0.8684 3.47126 1.01009 4.06162 1.14232 4.60474L1.01953 4.53389C1.8838 4.32608 2.60639 4.16551 3.1259 4.06161C3.40199 3.98836 3.68291 3.93471 3.96656 3.90103C3.72055 3.99872 3.46808 4.07921 3.21092 4.1419C2.7103 4.28831 1.97354 4.49612 1.07148 4.73698L0.972296 4.76059V4.66141C0.825888 4.11829 0.674758 3.52794 0.500014 2.90453C0.419727 2.58338 0.334717 2.25749 0.249706 1.92217C0.207201 1.75687 0.164696 1.58686 0.117468 1.41684L0.051356 1.15708L0.0182929 1.02484V0.95873V0.925667V0.902044C-0.0572721 1.03428 0.126919 0.717866 0.108027 0.750925L3.03145 0.0236083L3.14006 0L3.16841 0.103902C3.44706 1.25155 3.6643 2.215 3.81071 2.87619C3.89297 3.20601 3.95604 3.54031 3.99962 3.87742Z" fill="#263238"/>
</svg>
