<svg width="62" height="62" viewBox="0 0 62 62" fill="none" xmlns="http://www.w3.org/2000/svg">
<path d="M62 31C62 48.1209 48.1209 62 31 62C13.8791 62 0 48.1209 0 31C0 13.8791 13.8791 0 31 0C48.1209 0 62 13.8791 62 31ZM27.4142 47.4142L50.4142 24.4142C51.1952 23.6332 51.1952 22.3669 50.4142 21.5859L47.5859 18.7575C46.8049 17.9764 45.5385 17.9764 44.7574 18.7575L26 37.5148L17.2426 28.7574C16.4616 27.9764 15.1953 27.9764 14.4141 28.7574L11.5857 31.5858C10.8047 32.3667 10.8047 33.6331 11.5857 34.4141L24.5858 47.4141C25.3669 48.1952 26.6331 48.1952 27.4142 47.4142Z" fill="white"/>
</svg>
