<svg width="58" height="77" viewBox="0 0 58 77" fill="none" xmlns="http://www.w3.org/2000/svg">
<path fill-rule="evenodd" clip-rule="evenodd" d="M46.1671 11.6782C46.1663 11.8633 46.161 12.0474 46.1513 12.2303C50.6482 13.8079 53.8729 18.0907 53.8729 23.1265V26.9745H57.7209V42.3666H53.8729V53.9112C53.8729 58.9441 50.652 63.225 46.1587 64.8046C46.1706 65.0201 46.1767 65.2368 46.1767 65.4554C46.1767 71.8308 41.0084 76.9995 34.6326 76.9995H19.2403C12.8646 76.9995 7.69612 71.8308 7.69612 65.4554C7.69612 65.2368 7.7022 65.0201 7.71413 64.8046C3.22102 63.225 0 58.9441 0 53.9112V23.1265C0 18.096 3.21767 13.817 7.70713 12.2353C7.69254 11.9878 7.68573 11.7382 7.687 11.4867C7.71871 5.11114 12.9129 -0.0316003 19.2885 0.000146192L34.6807 0.0767615C41.0561 0.108508 46.1991 5.30266 46.1671 11.6782ZM15.3832 11.5823H38.471C38.4506 9.48354 36.7482 7.78327 34.6422 7.77277L19.2502 7.69615C17.125 7.68561 15.3936 9.39984 15.383 11.525L15.3832 11.5823ZM43.1171 19.3593L26.8772 19.2785H11.5442C9.41898 19.2785 7.69612 21.0013 7.69612 23.1265V53.9112C7.69612 56.0345 9.41605 57.7562 11.5388 57.7592H42.3341C44.4567 57.7562 46.1767 56.0345 46.1767 53.9112V23.1265C46.1767 21.2715 44.8642 19.723 43.1171 19.3593ZM15.3922 65.4554C15.3922 67.5803 17.1151 69.3034 19.2403 69.3034H34.6326C36.7578 69.3034 38.4806 67.5803 38.4806 65.4554H15.3922Z" fill="url(#paint0_linear_101_62)"/>
<defs>
<linearGradient id="paint0_linear_101_62" x1="28.8605" y1="0" x2="28.8605" y2="76.9995" gradientUnits="userSpaceOnUse">
<stop stop-color="#9747FF"/>
<stop offset="1" stop-color="#558DF8"/>
</linearGradient>
</defs>
</svg>
