<svg width="21" height="21" viewBox="0 0 21 21" fill="none" xmlns="http://www.w3.org/2000/svg">
<path d="M1.04964 2.62409V4.73027C1.04964 13.1359 7.86374 19.95 16.2694 19.95H18.3686C19.2382 19.95 19.9431 19.2451 19.9431 18.3755V15.6832C19.9431 15.0055 19.5094 14.4038 18.8665 14.1895L15.5253 13.0758C14.8517 12.8512 14.1112 13.1053 13.7174 13.6961L12.9522 14.8438C12.5584 15.4345 11.8179 15.6886 11.1443 15.4641L9.54318 14.9304C7.90126 14.3831 6.6415 13.0514 6.18612 11.3817L5.52794 8.96832C5.30807 8.16214 5.75629 7.32464 6.54903 7.06039L7.18149 6.84957C7.84317 6.62901 8.24606 5.95986 8.13139 5.27188L7.64696 2.36525C7.52042 1.60607 6.86358 1.04964 6.09392 1.04964H2.62409C1.75454 1.04964 1.04964 1.75454 1.04964 2.62409ZM0 2.62409C0 1.17485 1.17485 0 2.62409 0H6.09392C7.37668 0 8.47143 0.927388 8.68231 2.19269L9.16675 5.09932C9.36632 6.29677 8.66509 7.46145 7.51342 7.84534L6.88095 8.05617C6.61671 8.14425 6.4673 8.42342 6.54059 8.69214L7.19877 11.1055C7.56181 12.4366 8.56612 13.4983 9.8751 13.9346L11.4762 14.4683C11.7007 14.5432 11.9476 14.4585 12.0789 14.2616L12.844 13.1138C13.5004 12.1292 14.7346 11.7058 15.8572 12.08L19.1985 13.1937C20.27 13.5509 20.9927 14.5537 20.9927 15.6832V18.3755C20.9927 19.8248 19.8179 20.9996 18.3686 20.9996H16.2694C7.28404 20.9996 0 13.7156 0 4.73027V2.62409Z" fill="white"/>
</svg>
